<?xml version="1.0" encoding="UTF-8"?>
<svg id="Capa_2" data-name="Capa 2" xmlns="http://www.w3.org/2000/svg" viewBox="0 0 354.26 285.77">
  <defs>
    <style>
      .cls-1 {
        fill: #ffdd5a;
        stroke: #000;
        stroke-linecap: round;
        stroke-miterlimit: 10;
        stroke-width: 6px;
      }
    </style>
  </defs>
  <g id="Capa_1-2" data-name="Capa 1">
    <path class="cls-1" d="M301.3,282.77H52.96c-27.59,0-49.96-22.37-49.96-49.96V52.96C3,25.37,25.37,3,52.96,3h48.7c22.14,0,39.65,18.75,38.13,40.84h0c-.34,4.97,3.6,9.19,8.58,9.19h152.92c27.59,0,49.96,22.37,49.96,49.96v129.83c0,27.59-22.37,49.96-49.96,49.96Z"/>
    <g>
      <path d="M157.93,159.24c.82-3.65.75-6.89-.2-9.72-.95-2.83-2.6-5.03-4.94-6.6-2.34-1.57-5.12-2.35-8.33-2.35-3.46,0-6.39.84-8.8,2.51s-4.23,4.11-5.47,7.31c-1.24,3.2-1.86,7.09-1.86,11.66s.63,8.38,1.9,11.58c1.27,3.2,3.17,5.66,5.7,7.37,2.53,1.72,5.6,2.57,9.19,2.57,2.83,0,5.26-.53,7.29-1.59,2.03-1.06,3.64-2.55,4.82-4.47s1.93-4.27,2.23-7.05c0-.11.01-.25.04-.43.03-.18.04-.35.04-.51l7.56,1.96c-.3,4.19-1.34,7.88-3.12,11.07-1.78,3.19-4.29,5.68-7.52,7.5-3.23,1.81-7.11,2.72-11.66,2.72-5.17,0-9.59-1.18-13.24-3.53-3.65-2.36-6.41-5.83-8.29-10.42s-2.82-10.17-2.82-16.73.93-12.17,2.8-16.75c1.87-4.58,4.6-8.06,8.21-10.46s8.04-3.59,13.3-3.59c4.82,0,8.97,1.12,12.44,3.35,3.47,2.23,5.94,5.34,7.39,9.31,1.46,3.98,1.78,8.54.96,13.68l-7.6,1.59Z"/>
      <path d="M168.19,132.81h9.6c1.44,4.47,2.85,9,4.21,13.6,1.36,4.6,2.7,9.25,4,13.93,1.33,4.66,2.63,9.28,3.9,13.87,1.27,4.59,2.53,9.16,3.78,13.7h.29c1.25-4.57,2.53-9.16,3.82-13.77,1.29-4.6,2.61-9.2,3.94-13.81,1.36-4.71,2.73-9.36,4.1-13.95,1.38-4.59,2.77-9.12,4.19-13.58h9.31l-18.38,58.5h-14.3l-18.46-58.5Z"/>
    </g>
  </g>
</svg>