<?xml version="1.0" encoding="UTF-8"?>
<svg id="Capa_2" data-name="Capa 2" xmlns="http://www.w3.org/2000/svg" viewBox="0 0 489.79 429.81">
  <defs>
    <style>
      .cls-1 {
        fill: #ffd95a;
      }

      .cls-1, .cls-2, .cls-3, .cls-4, .cls-5, .cls-6, .cls-7, .cls-8, .cls-9, .cls-10 {
        stroke: #000;
        stroke-miterlimit: 10;
      }

      .cls-1, .cls-2, .cls-5 {
        stroke-width: 2.52px;
      }

      .cls-2 {
        fill: #94eacf;
      }

      .cls-3 {
        stroke-width: 2.5px;
      }

      .cls-3, .cls-7 {
        fill: none;
      }

      .cls-4 {
        stroke-width: 5px;
      }

      .cls-4, .cls-5 {
        fill: #ff5f5f;
      }

      .cls-6, .cls-7, .cls-9, .cls-10 {
        stroke-linecap: round;
        stroke-width: 6.31px;
      }

      .cls-8 {
        stroke-width: 3.79px;
      }

      .cls-8, .cls-10 {
        fill: #fff;
      }

      .cls-9 {
        fill: #ffde5a;
      }
    </style>
  </defs>
  <g id="Capa_1-2" data-name="Capa 1">
    <g>
      <g>
        <rect class="cls-8" x="2.51" y="1.89" width="484.72" height="425.42" rx="46.14" ry="46.14"/>
        <path class="cls-4" d="M441.16,427.31H48.71c-25.48,0-46.14-20.66-46.14-46.14V48.03c0-4.33,3.51-7.84,7.84-7.84h469.04c4.33,0,7.84,3.51,7.84,7.84v333.14c0,25.48-20.66,46.14-46.14,46.14Z"/>
        <path class="cls-3" d="M439.84,427.31H47.39c-25.48,0-46.14-20.66-46.14-46.14V48.03c0-4.33,3.51-7.84,7.84-7.84h469.04c4.33,0,7.84,3.51,7.84,7.84v333.14c0,25.48-20.66,46.14-46.14,46.14Z"/>
        <circle class="cls-5" cx="37.54" cy="21.71" r="5.54"/>
        <circle class="cls-1" cx="59.65" cy="21.71" r="5.54"/>
        <circle class="cls-2" cx="83.4" cy="21.71" r="5.54"/>
      </g>
      <g>
        <path class="cls-10" d="M74.48,425.35h326.62c4.33,0,7.85-3.51,7.84-7.84-.02-49.33-4.37-314.73-95.91-314.73-27.93,0-51.02,70.41-54.44,101.93-.43,4-3.78,7.06-7.8,7.06h-27.54c-3.48,0-6.54-2.29-7.52-5.63-5.93-20.11-29.38-87.21-78.28-87.21-72.18,0-71.56,251.16-70.8,298.7.07,4.28,3.56,7.72,7.84,7.72Z"/>
        <path class="cls-9" d="M166.72,239.36c22.67,0,42.17,13.42,51.09,32.73.95,2.05.95,4.44,0,6.49-8.92,19.31-28.42,32.73-51.09,32.73-22.67,0-42.17-13.42-51.09-32.73-.95-2.05-.95-4.44,0-6.49,8.92-19.31,28.42-32.73,51.09-32.73Z"/>
        <path class="cls-9" d="M315.95,239.36c22.67,0,42.17,13.42,51.09,32.73.95,2.05.95,4.44,0,6.49-8.92,19.31-28.42,32.73-51.09,32.73-22.67,0-42.17-13.42-51.09-32.73-.95-2.05-.95-4.44,0-6.49,8.92-19.31,28.42-32.73,51.09-32.73Z"/>
        <path class="cls-6" d="M119.98,286.26c5.25,7.72,14.64,17.52,30.2,22.28,13.09,4.01,25.37-8.17,21.32-21.25-4.66-15.06-20.44-28.98-46.9-17.38-6.33,2.78-8.52,10.63-4.63,16.35Z"/>
        <path class="cls-6" d="M270.68,286.26c5.25,7.72,14.64,17.52,30.2,22.28,13.09,4.01,25.37-8.17,21.32-21.25-4.66-15.06-20.44-28.98-46.9-17.38-6.33,2.78-8.52,10.63-4.63,16.35Z"/>
        <path class="cls-7" d="M138.94,140.75c4.42,5.15,27.25,32.17,27.25,70.77"/>
        <path class="cls-7" d="M326.55,140.75c-4.42,5.15-27.25,32.17-27.25,70.77"/>
        <path class="cls-6" d="M244.55,329.08h0c8.88,0,14.03,10.04,8.86,17.25l-1.38,1.92c-4.05,5.66-12.63,5.12-15.94-1l-1.13-2.08c-3.94-7.26,1.32-16.1,9.58-16.1Z"/>
        <line class="cls-7" x1="27.95" y1="294.27" x2="183.48" y2="336.52"/>
        <line class="cls-7" x1="23.03" y1="354.44" x2="183.48" y2="354.44"/>
        <line class="cls-7" x1="452.73" y1="294.27" x2="297.2" y2="336.52"/>
        <line class="cls-7" x1="448.54" y1="354.44" x2="297.2" y2="354.44"/>
      </g>
    </g>
  </g>
</svg>