<?xml version="1.0" encoding="UTF-8"?>
<svg xmlns="http://www.w3.org/2000/svg" viewBox="0 0 499.54 669.96">
  <defs>
    <style>
      .cls-1 {
        fill: #3579bd;
      }

      .cls-2 {
        fill: #6ae0c1;
      }

      .cls-2, .cls-3, .cls-4, .cls-5 {
        stroke: #191919;
        stroke-linecap: round;
      }

      .cls-2, .cls-3, .cls-4, .cls-5, .cls-6 {
        stroke-miterlimit: 10;
      }

      .cls-2, .cls-4 {
        stroke-width: 4.21px;
      }

      .cls-7 {
        opacity: .56;
      }

      .cls-7, .cls-8, .cls-9 {
        mix-blend-mode: multiply;
      }

      .cls-10, .cls-4 {
        fill: #fff;
      }

      .cls-11 {
        isolation: isolate;
      }

      .cls-8, .cls-12 {
        fill: #ff5f5f;
      }

      .cls-3, .cls-5 {
        stroke-width: 2.42px;
      }

      .cls-3, .cls-6 {
        fill: none;
      }

      .cls-5, .cls-13, .cls-9 {
        fill: #ffd95a;
      }

      .cls-14 {
        fill: #191919;
      }

      .cls-6 {
        stroke: #000;
        stroke-width: 1.34px;
      }
    </style>
  </defs>
  <g class="cls-11">
    <g id="Capa_2" data-name="Capa 2">
      <g id="Capa_1-2" data-name="Capa 1">
        <g>
          <g>
            <g>
              <rect class="cls-1" x="1.34" y="1.34" width="496.86" height="617.46" rx="25.51" ry="25.51"/>
              <path d="M472.7,2.68c13.33,0,24.17,10.84,24.17,24.17v566.44c0,13.33-10.84,24.17-24.17,24.17H26.85c-13.33,0-24.17-10.84-24.17-24.17V26.85C2.68,13.52,13.52,2.68,26.85,2.68h445.85M472.7,0H26.85C12.02,0,0,12.02,0,26.85v566.44c0,14.83,12.02,26.85,26.85,26.85h445.85c14.83,0,26.85-12.02,26.85-26.85V26.85C499.54,12.02,487.52,0,472.7,0h0Z"/>
            </g>
            <g>
              <path class="cls-10" d="M1.34,58.76V20.2C1.34,9.8,9.8,1.34,20.2,1.34h459.15c10.4,0,18.86,8.46,18.86,18.86v38.56H1.34Z"/>
              <path d="M479.34,2.68c9.66,0,17.52,7.86,17.52,17.52v37.23H2.68V20.2C2.68,10.54,10.54,2.68,20.2,2.68h459.14M479.34,0H20.2C9.04,0,0,9.04,0,20.2v39.9h499.54V20.2c0-11.16-9.04-20.2-20.2-20.2h0Z"/>
            </g>
          </g>
          <g>
            <path class="cls-13" d="M205.59,345.97h0c0,18.37-11.59,34.7-28.9,40.84-41.32,14.66-115.84,52-148.12,137.1-17.83,47,16.76,97.32,67.03,97.32h105.49s214.63,0,214.63,0c52.87,0,87.53-55.77,63.62-102.94-22.27-43.94-75.29-89.57-152.38-125.79-21.61-10.15-35.28-32.03-34.99-55.9l.45-37.25"/>
            <path class="cls-14" d="M205.59,345.97c2.3.1.63.2,1.14.29v.29s-.04.59-.04.59c-.41,14.57-8.16,28.7-20.45,36.62-3.24,2.13-6.98,3.82-10.58,5.14-39.65,14.91-76.26,38.65-104.07,70.66-16.76,19.29-29.97,41.5-39.03,65.37-7.95,20.23-5.4,43.97,6.75,62.02,9.48,14.5,24.73,25.04,41.67,28.69,5.73,1.31,11.46,1.66,17.36,1.61,22.99.02,86.14.14,110.01.17,64.11.06,146.91.85,210.7.78,39.91-1.12,71.18-39.07,64.83-78.5-1.11-7.31-3.47-14.42-6.83-21.02-2-3.73-4.4-8.23-6.73-11.76-22.96-35.93-57.33-63.1-93.07-85.58-10-6.22-21.28-12.62-31.77-18.07-10.67-6.04-22.7-9.97-32.16-17.97-9.59-7.97-16.67-18.87-20.1-30.85-3.45-10.61-2.11-25.76-2.13-36.78,0,0,.17-18.33.17-18.33,0-.64.53-1.15,1.16-1.14.64,0,1.15.53,1.14,1.17-.17,9.2-.39,27.48-.48,36.67-.08,6.02.64,12.02,2.32,17.79,5.01,17.67,18.11,31.66,34.88,38.84,27.64,13.08,54.57,28.31,79.16,46.52,25.95,19.15,49.93,41.73,66.94,69.39,1.7,2.78,2.97,5.41,4.54,8.12,9.68,18.14,11.12,40.38,3.69,59.59-9.9,26.95-36.51,46.68-65.3,47.76-89.63.78-194.48.9-284.32,1.13-9.82-.38-41.49.92-50.97-.82-7.98-1.17-15.77-3.69-22.96-7.35-34.2-17.15-50.53-59.39-36.15-94.98,12.8-33.43,34.32-63.26,61.53-86.44,25.88-22.08,56.15-38.52,88.1-49.7,3.55-1.21,6.94-2.61,10.11-4.58,11.38-6.96,19.24-19.67,19.69-33.1,0,0,.03-1.12.03-1.12l.02-.56v-.28c.53-.09-1.14-.19,1.17-.28h0Z"/>
          </g>
          <path class="cls-14" d="M334.91,531.35c-49.73,35.13-126.53,34.75-175.33-2.2-15.1-11.63-27.39-27.81-31.6-46.69-2.79-12.55-2.21-26.23,2.97-38.08,2.61-5.87,6.19-11.28,10.81-15.63.5-.47,1.28-.45,1.75.05.34.36.42.88.25,1.31-2.32,5.7-4.55,11.14-6.2,16.71-5.38,16.52-4.56,34.71,3.94,50.09,11.23,20.93,31.67,35.26,53.44,43.91,33.48,13.05,71.53,14.07,105.88,3.66,5.74-1.81,11.38-3.96,16.85-6.49,5.48-2.51,10.81-5.37,15.87-8.66.56-.37,1.31-.21,1.68.35.35.54.21,1.27-.31,1.65h0Z"/>
          <path class="cls-3" d="M243.1,429.45s-19,46.85-15.26,123.34"/>
          <ellipse class="cls-14" cx="169.33" cy="499.8" rx="9.32" ry="6.91"/>
          <path class="cls-14" d="M291.54,548.06c32.71-13.2,89.43-28.71,122.41-11.75,9.13,4.49,25.12,20.53,16.52,31-6.52,6.94-18.28,4.19-26.17,1.69-23.18-8.17-42.34-26.29-52.74-48.4-2.55-5.47-4.5-11.2-5.93-17.05-1.35-5.85-2.17-11.78-2.35-17.71,0-1.43,2.09-1.75,2.41-.26,4.97,28.07,22.05,53.24,46.68,67.42,8.2,4.56,20.03,10.14,29.39,8.49.46-.1,1.13-.39,1.37-.64.04.02-.02-.03.02-.03,0-.03,0-.09.03-.15.1-1.17-.8-3.03-1.52-4.3-1.64-2.67-3.63-5.2-5.98-7.28-17.73-15.27-50.3-12.32-72.25-9.56-17.22,2.44-34.27,6.16-51.05,10.81-.65.2-1.34-.18-1.52-.84-.17-.6.14-1.21.7-1.44h0Z"/>
          <path class="cls-14" d="M280.36,564.09c2.81-29.13,15.76-74.6,42.22-90.42.58-.34,1.33-.15,1.67.43.29.49.2,1.1-.19,1.49-2.89,3-5.62,6.05-8.15,9.25-12.86,16.25-21.06,35.54-27,55.3-2.38,7.98-4.48,16.11-6.14,24.27-.26,1.45-2.51,1.26-2.4-.31h0Z"/>
          <g>
            <path class="cls-13" d="M132.76,485.7s-13.99,70.26-51.97,68.65c-37.98-1.61,38.64-72.97,155.71-16.57,27.32-6.17,86.81,16.57,52.63,39.71,21.28,20.72,47.18,48.34,34.52,63.88-5.75,6.33-18.99,4.03-23.02,0,6.91,8.06-.3,27.05-18.28,13.81,3.89,10.36-14.15,19.57-27,2.3,1.54,8.63-15.73,17.84-27.53,4.6-11.8-13.24-13.52-20.14-13.52-20.14l-13.23-20.72s-16.12-31.65-48.93-31.65c-25.9,0-36.26,31.65-36.26,31.65l-28.2-3.46"/>
            <path class="cls-14" d="M133.95,485.94c-5.4,25.06-19.59,67.73-49.54,70.63-14.35,1.44-21.59-7.39-10.5-19.2,6.51-6.76,14.88-11.3,23.35-14.91,45.66-18.41,97.85-9.15,141.24,11.17,0,0-3.02-.34-3.02-.34,15.85-2.56,32.71,1.64,46.97,8.39,10.3,4.88,24.92,16.24,16.28,28.81-2.4,3.47-5.64,5.9-8.93,8.01l.17-1.87c12.21,12.11,24.71,24.26,33.35,39.36,3.09,5.73,5.81,12.47,4.55,19.19-.84,4.6-4.02,9.01-8.56,10.35-6.21,1.97-14.45,1.09-19.54-3.29,0,0,1.78-1.64,1.78-1.64,4.37,5.31,3.78,13.87-1.62,18.27-5.66,4.39-13.34,1.05-18.29-2.7,0,0,1.85-1.4,1.85-1.4,2.96,7.74-4.96,14.04-12.2,13.56-3.49-.09-6.84-1.32-9.68-3.16-2.86-1.85-5.23-4.29-7.22-6.95l2.16-.93c.96,8.99-10.13,13.83-17.73,12.44-5.33-.79-9.84-4.13-13.13-8.24-4.63-5.27-10.76-13.46-12.41-18.88,0,0-13.23-20.72-13.23-20.72-2.17-3.99-4.94-7.83-7.96-11.33-8.91-10.38-21.37-18.29-35.17-19.51-4.48-.47-9.12-.34-13.42,1.05-13.18,4.28-21.81,17.05-26.47,29.51,0,0-.34.94-.34.94l-.96-.12-28.2-3.46c-.66-.08-1.14-.69-1.05-1.35.08-.66.69-1.14,1.35-1.05l28.2,3.46-1.3.82c4.96-13.28,14.01-26.49,28.05-31.07,4.63-1.49,9.58-1.65,14.38-1.15,14.47,1.29,27.46,9.5,36.76,20.33,3,3.47,6.18,7.88,8.17,11.61,0,0,13.23,20.72,13.23,20.72l.09.14c.31,1.1.88,2.35,1.43,3.42,2.83,5.47,6.66,10.37,10.68,15.03,1.51,1.78,3.24,3.64,5.22,4.89,3.89,2.63,8.89,3.46,13.36,2.09,4-1.12,8.73-4.71,8.07-9.17,0,0-.95-5.1-.95-5.1l3.11,4.16c3.57,4.84,8.87,8.98,15.02,9.14,4.25.15,8.98-2.01,10.14-6.28.79-2.33-.93-5.63-1.69-7.81,0,0,3.28,2.4,3.28,2.4,4.29,3.17,10.64,6.31,15.38,2.74,4.23-3.31,4.73-10.74,1.27-14.79,0,0,1.78-1.64,1.78-1.64,1.28,1.23,3.21,2.08,5.12,2.66,11.21,3.18,20.8-1.6,18.92-14.44-3.5-17.94-24.46-37.51-37.25-50.38,0,0-1.06-.96-1.06-.96l1.22-.91c17.23-12.47,7.24-23.11-8.4-29.51-13.17-5.07-28.68-7.9-42.53-4.7,0,0-1.69.32-1.69.32-21.28-10.72-44.14-18.51-67.75-21.57-28.77-3.8-68.24-.38-90.43,19.93-8.02,8.33-3.71,11.47,6.42,11.08,22.97-1.79,35.86-30.42,42.62-49.59,1.9-5.57,3.59-11.27,4.88-16.98.39-1.47,2.58-1.22,2.37.47h0Z"/>
          </g>
          <path class="cls-5" d="M201.09,621.23s-14.97-31.65-48.93-31.65-56.41,54.66-42.02,62.72c6.91,5.19,14.4-1.14,14.4-1.14,0,0,6.91,17.26,26.47,2.88.58,11.51,18.45,12.66,27.64,2.3-.02,14.39,13.81,13.63,22.44,7.1,8.62-6.53,13.23-21.49,13.23-21.49l-13.23-20.72Z"/>
          <g>
            <g>
              <path class="cls-12" d="M190.13,273.65s-41.59,24.08-56.55,22.93c-14.97-1.15-26.17-14.21-25.03-29.18,1.15-14.97,14.21-26.17,29.18-25.03,14.97,1.15,52.4,31.27,52.4,31.27Z"/>
              <path d="M191.5,273.75c-.04.29-.22.7-.51.94-.38.31-.31.21-.35.25l-.18.11-.35.21c-7.23,4.36-14.68,8.42-22.22,12.22-7.91,3.91-15.89,7.54-24.45,10.01-3.84,1.08-8.15,1.92-12.2,1.22-10.02-1.33-19.04-8.25-22.98-17.57-8.14-18.82,5.18-40.38,25.7-41.31.45-.06,1.33-.06,1.78-.03,1.78.02,3.71.18,5.43.66,6.6,1.81,12.46,5.31,18.18,8.77,10.23,6.35,19.84,13.6,29.12,21.23.3.28,1.56,1.29,1.88,1.58,0,0,.31.27.31.27l.16.13s-.02-.06.31.3c.24.29.36.72.36,1.01h0ZM188.75,273.54c-.06.25,0,.64.2.88.28.32.17.17.15.18-.26-.2-.86-.64-1.14-.84-10-7.3-20.22-14.44-30.9-20.7-3.71-2.14-7.48-4.16-11.33-5.78-3.28-1.36-6.47-2.56-10-2.43,0,0-.74-.01-.74-.01-12.49.44-22.85,10.28-23.84,22.78-1.06,12.35,7.88,24.01,20.08,26.23,0,0,.73.1.73.1,3.48.67,6.85,0,10.31-.84,8.13-2.12,16.1-5.58,23.95-9.11,7.22-3.25,14.77-7.09,21.79-10.77,0,0,.71-.38.71-.38l.36-.19.18-.1s.15-.12-.18.15c-.23.21-.35.58-.33.84h0Z"/>
            </g>
            <g>
              <path class="cls-12" d="M302.26,264.9s35.37,26.78,49.21,27.43c13.84.65,25.59-10.05,26.24-23.89.65-13.84-10.05-25.59-23.89-26.24-13.84-.65-51.56,22.7-51.56,22.7Z"/>
              <path d="M302.75,264.93c.03-.08.02-.2-.03-.27-.09-.1-.03-.04,0-.03.06.05.38.27.46.33,2.46,1.77,6.7,4.66,9.25,6.4,6.64,4.44,13.4,8.73,20.38,12.59,3.49,1.91,7.05,3.71,10.71,5.15,3.15,1.23,6.38,2.26,9.76,2.06,12.26-.16,22.76-10.55,23.18-22.78.62-12.05-8.29-22.99-20.23-24.77,0,0-.71-.07-.71-.07-3.35-.51-6.65.24-9.9,1.16-3.78,1.09-7.49,2.55-11.14,4.12-7.32,3.18-14.45,6.83-21.48,10.62-3.34,1.81-6.85,3.79-10.14,5.69,0,0-.16.09-.16.09-.02,0-.08.06.01-.03.06-.07.08-.19.06-.27h0ZM301.78,264.88c.11-.42.55-.58.87-.8.35-.24,1.53-.95,1.91-1.21,11.5-6.97,36.72-22.17,49.66-21.81,14.18.7,25.51,13.23,24.76,27.43-.64,14.21-13,25.6-27.22,24.98-13.03-.94-36.48-18.27-47.4-26.35-.28-.24-1.49-1.13-1.79-1.38-.29-.25-.73-.45-.79-.87h0Z"/>
            </g>
            <path d="M361.56,267.77c.29.37.71.72,1.17.85,0,0-.04-.02-.06-.02l-.16-.06c-10.68-2.31-27.99-2.91-36.73,4.46-1.18,1.08-2.89-.61-1.8-1.81,8.88-9.23,27.52-10.46,39.63-9.13.58.09,1.23.24,1.77.46,5.03,2.53.06,9.28-3.81,5.25h0Z"/>
            <path d="M122.47,265.14c.3-.27.74-.47,1.11-.58,3.04-.86,6.18-1.11,9.31-1.27,6.6-.22,13.37.47,19.45,3.33,3.06,1.43,5.88,3.54,8.02,6.25.47.6.37,1.47-.23,1.94-.6.48-1.48.37-1.95-.24-7.53-9-21.33-9.36-32.11-7.59-.61.13-1.23.25-1.79.46.09-.03.17-.09.23-.17-1.43,1.32-3.44-.78-2.04-2.15h0Z"/>
            <path class="cls-8" d="M110.86,262.66s21.24-16.71,49.61,1.45l1.97-11.48s-41.73-24.84-51.58,10.03Z"/>
            <path class="cls-8" d="M329.43,258.88s33.35-12.56,46.42-1.11c-6.2-11.79-19.82-23.86-49.74-7.13l3.32,8.25Z"/>
            <path class="cls-2" d="M283.46,155.61c-12.83,9.39-26.89,26.19-27.61,39.38-6.99-2.8-14.27-1.04-21.66,0-3.66-13.15-15.46-24.58-20.77-29.19-.92-.8-.35-2.31.87-2.3,6.04.04,20.53,5.48,30.86,19.02,11.05-11.55,26.91-27.64,36.92-29.93,1.8-.41,2.88,1.93,1.39,3.02Z"/>
            <g>
              <path class="cls-12" d="M210.64,233.62c0-2.46-2.29-39.71,37.44-39.71,29.27,0,43.66,35.31,32.95,36.77-8.92,1.22-21.81-31.79,25.45-31.79,19.34,0,29.01,15.81,33.81,32.81,7.54,26.68,3,55.75-11.61,78.51-14.5,22.58-40.79,47.03-86.67,47.03-81.96,0-96.05-77.47-96.05-97.73,0,0-.09-17.16,8.61-34.86,11.94-24.29,38.16-35.31,61.44-25.5,4.31,1.81,6.28,3.4,6.28,3.4"/>
              <path class="cls-14" d="M209.7,233.62c-2.61-10.9,1.04-23.44,8.98-31.6,8.13-8.47,20.34-11.2,31.7-10.66,15.48.83,29.29,11.81,35.08,25.97,2.39,5.39,3.45,15.59-4.84,16.05-7.64-.45-11.35-10.01-10.83-16.62.43-8.51,7.79-14.92,15.27-17.41,7.18-2.57,14.63-3.16,22.15-3.11,7.75.04,15.63,3.14,21.24,8.51,8.28,7.83,12.59,18.92,15.23,29.61,5.22,21.45,3.02,44.58-6.08,64.69-13.68,30.09-41.98,53.5-74.89,58.73-17.99,2.96-36.77,2.27-54.19-3.37-39.72-12.44-62.41-53.67-64.41-93.49.24-17.61,6.13-37.66,18.33-50.74,12.42-13.72,32.98-19.87,50.58-13.37,3.47,1.26,6.78,2.69,9.87,5.01.41.31.5.9.18,1.32-.31.41-.88.49-1.29.2-5.77-3.76-12.87-5.77-19.73-6.27-13.92-1.05-27.81,5.16-37.11,15.43-11.44,12.64-16.86,31.49-17.08,48.32,1.91,31.1,16.31,63.43,43.09,80.6,17.8,11.44,39.68,14.85,60.52,13.16,36.02-2.34,66.69-25.01,81.5-57.62,8.59-19.08,10.64-41.05,5.64-61.37-3.72-15.9-12.99-34.07-31.51-34.02-11.19-.01-30.35,1.66-31.97,15.59-.31,3.82,1.38,9.2,4.95,10.8,3.34.82,1.26-6.98.44-8.69-4.97-12.18-17.05-21.99-30.45-22.67-9.98-.43-20.59,1.73-27.65,9.05-5.97,6.03-8.18,14.58-9.85,22.72,0,0-.99,5.24-.99,5.24-.17,1.03-1.72,1.01-1.88,0h0Z"/>
            </g>
            <g class="cls-7">
              <path class="cls-12" d="M340.92,231.73c-4.8-17-14.46-32.81-33.81-32.81-4.7,0-8.82.44-12.44,1.23,7.91,6.14,12.78,16.25,15.77,26.82,7.54,26.68,3,55.75-11.61,78.51-14.5,22.58-40.79,47.03-86.67,47.03-.67,0-1.33,0-1.98-.02,9.42,3.03,20.18,4.77,32.46,4.77,45.88,0,72.17-24.44,86.67-47.03,14.61-22.76,19.15-51.82,11.61-78.51Z"/>
            </g>
            <path class="cls-6" d="M175.85,331.92s51.25-67.52,134.22.42c-14.44,14.02-76.51,50.2-134.22-.42Z"/>
            <g>
              <circle class="cls-10" cx="215.63" cy="264.4" r="15.15"/>
              <path class="cls-14" d="M231.98,264.4c-.04,14.3-17.52,21.21-27.4,11.05-9.73-9.87-2.86-26.82,11.05-27.08,8.73-.35,16.5,7.26,16.35,16.04h0ZM229.57,264.4c.01-12.49-15.15-18.96-24.2-10.26-7.52,6.98-4.97,20.13,4.69,23.71,9.26,3.7,19.66-3.57,19.51-13.45h0Z"/>
            </g>
            <g>
              <circle class="cls-10" cx="265.88" cy="264.4" r="15.15"/>
              <path class="cls-14" d="M282.08,264.4c-.14,14.27-17.29,21.15-27.27,11.07-5.97-5.88-6.03-16.29-.04-22.19,9.96-10.18,27.21-3.15,27.32,11.11h0ZM279.97,264.4c.07-12.61-15.33-19.1-24.4-10.3-5.74,5.35-5.79,15.29-.04,20.65,9.04,8.91,24.54,2.25,24.44-10.35h0Z"/>
            </g>
            <circle class="cls-14" cx="216.66" cy="264.39" r="3.68"/>
            <circle class="cls-14" cx="265.88" cy="264.39" r="3.68"/>
            <path class="cls-14" d="M254.58,296.45c-1.92-5.11-5.88-18.71-12.56-18.19-3.76.54-6.62,3.58-8.5,6.82-2.02,3.49-3.38,7.57-4.21,11.63-.08.5-.56.83-1.05.73-.44-.09-.73-.48-.71-.91.12-2.25.51-4.39,1.03-6.56,1.38-5.48,4.14-11.24,9.42-14.01,10.58-5.48,16.38,8.59,17.79,16.8.21,1.06.39,2.29.48,3.32.1,1.02-1.38,1.34-1.71.37h0Z"/>
            <g>
              <circle class="cls-12" cx="240.48" cy="324.88" r="13.85"/>
              <path class="cls-14" d="M255.82,324.88c-.06,13.39-16.45,19.66-25.79,10.44-5.76-5.49-5.83-15.44-.16-21.05,9.45-9.68,25.89-2.9,25.95,10.61h0ZM252.84,324.88c.1-11-13.49-16.68-21.34-8.99-5.06,4.67-5.13,13.33-.16,18.13,8.03,8.15,21.56,2.03,21.5-9.15h0Z"/>
            </g>
            <circle class="cls-14" cx="240.48" cy="324.88" r="2.86"/>
          </g>
          <path class="cls-4" d="M195.28,374s55.33,29.7,108.92,0c0,0,.05-.02.13-.05,7.23-2.86,15.04,2.61,14.88,10.38l-.05,2.57s55.43,25.61,73.65,42.56c15.47-4.46,15.63,1.18,17.75,12.63-17.09,2.12-47.66,55.74-46.92,91.5-23.81,3.1-71.69,15.62-71.69,15.62,0,0-27.42-17.17-55.44-11.41-28.95-11.74-68.1-29.07-114.47-19.34-23.32-19.91-53.77-47.27-64.61-47.04-7.55-6.35-9.75-14.04-3.71-17.33,6.04-3.29,17.28.98,17.28.98,0,0,36.58-44.39,105.7-68.24-2.23-9.58,4.43-18.69,18.59-12.82Z"/>
          <g>
            <path class="cls-10" d="M132.58,450.72s25.92,81.85,118.15,81.85,107.1-82.33,109.27-88.92"/>
            <path class="cls-14" d="M134.59,450.08c11.82,30.49,35.67,56.83,65.97,69.59,32.5,13.27,72.74,13.48,104.15-2.92,26.45-14,43.85-40.72,51.92-69.06,0,0,.67-2.29.67-2.29.23-.77.44-1.53.73-2.43.36-1.1,1.55-1.7,2.65-1.34,1.06.35,1.66,1.47,1.38,2.53-.17.69-.38,1.5-.57,2.33,0,0-.56,2.35-.56,2.35-4.6,19.05-13.24,37.25-26.16,52.09-21.21,24.54-52.19,35.12-83.98,34.88-39.97.42-78.28-17.43-101.84-50.04-7.72-10.56-14.17-21.99-18.35-34.44-.73-2.67,3.06-3.93,4.01-1.27h0Z"/>
          </g>
          <path class="cls-2" d="M142.8,472.08s-4.22,26.33,0,43.68"/>
          <path class="cls-2" d="M350.04,472.08s6.65,34.63.94,61.49"/>
          <path class="cls-9" d="M210.18,352.5s41.65,15.48,81.77-6.9c3.08,10.83,12.25,28.4,12.25,28.4,0,0-56.21,21.42-94.02-21.5Z"/>
          <path class="cls-9" d="M37.88,502.83s10.85,97.2,67.83,83.56c54.57-16.05,76.39-28.02,126.5,57.05,8.37,16.05,23.15,14.05,23.15,14.05-4.63,16.45-21.46,11.95-27.53,4.6-9.59-12.4-37.71-74.12-75.68-72.51-21.94.93-40.4,31.65-40.4,31.65,0,0-61.52,7.52-87.93-54.48-6.35-27.65,14.06-63.93,14.06-63.93Z"/>
          <path class="cls-9" d="M307.76,596.09c2.41,0,132.66-.08,145.5-29.33,12.84-29.25,6.13-78.65,6.13-78.65,0,0,43.28,46.2,22.19,89.11-21.09,42.92-56.41,45.88-74.86,44.01-18.46-1.87-83.39-2.67-83.39-2.67l-15.56-22.48Z"/>
          <path class="cls-9" d="M111.76,621.23s27.88-21.13,48.26-17.12,50.16,29.91,50.16,29.91c0,0-22.26-40.29-50.9-43.93-28.64-3.63-47.51,31.14-47.51,31.14Z"/>
        </g>
      </g>
    </g>
  </g>
</svg>