<?xml version="1.0" encoding="UTF-8"?>
<svg xmlns="http://www.w3.org/2000/svg" viewBox="0 0 382.11 415.22">
  <defs>
    <style>
      .cls-1 {
        stroke-width: 3.11px;
      }

      .cls-1, .cls-2, .cls-3, .cls-4, .cls-5, .cls-6, .cls-7, .cls-8, .cls-9, .cls-10, .cls-11, .cls-12, .cls-13, .cls-14, .cls-15, .cls-16 {
        stroke-linecap: round;
        stroke-miterlimit: 10;
      }

      .cls-1, .cls-2, .cls-3, .cls-4, .cls-5, .cls-6, .cls-7, .cls-8, .cls-9, .cls-10, .cls-11, .cls-13, .cls-15, .cls-16 {
        stroke: #000;
      }

      .cls-1, .cls-17, .cls-18, .cls-15 {
        fill: #ffe652;
      }

      .cls-2, .cls-5 {
        stroke-width: .95px;
      }

      .cls-2, .cls-7, .cls-12, .cls-14 {
        fill: none;
      }

      .cls-3 {
        fill: #ff5f5f;
      }

      .cls-3, .cls-6 {
        stroke-width: 1.24px;
      }

      .cls-4 {
        fill: gray;
      }

      .cls-4, .cls-11, .cls-13 {
        stroke-width: 1.12px;
      }

      .cls-19, .cls-10, .cls-16 {
        fill: #fff;
      }

      .cls-5, .cls-11 {
        fill: #35dcc0;
      }

      .cls-17, .cls-20, .cls-21, .cls-22 {
        mix-blend-mode: multiply;
      }

      .cls-23, .cls-20, .cls-14 {
        opacity: .47;
      }

      .cls-7, .cls-9, .cls-15 {
        stroke-width: 1.43px;
      }

      .cls-24 {
        fill: #fce53c;
      }

      .cls-25 {
        isolation: isolate;
      }

      .cls-8 {
        stroke-width: 1.3px;
      }

      .cls-9, .cls-26 {
        fill: #c2ecff;
      }

      .cls-10 {
        stroke-width: 1.74px;
      }

      .cls-20, .cls-21, .cls-13, .cls-27 {
        fill: #a6e0ff;
      }

      .cls-12 {
        stroke: #fff;
      }

      .cls-12, .cls-14 {
        stroke-width: 1.7px;
      }

      .cls-21 {
        opacity: .49;
      }

      .cls-28 {
        fill: #b3b3b3;
      }

      .cls-14 {
        stroke: #a6e0ff;
      }

      .cls-16 {
        stroke-width: .62px;
      }
    </style>
  </defs>
  <g class="cls-25">
    <g id="Capa_2" data-name="Capa 2">
      <g id="Capa_1-2" data-name="Capa 1">
        <g>
          <path class="cls-1" d="M151.43,125.24s-47.08,2.94-67.52,42.88c-20.45,39.94-3.33,66.57,0,77.98,3.33,11.41,113.17,63.72,113.17,63.72l97.96-38.04s60.39-50.88,40.89-99.38-59.92-48.98-89.4-44.22l-95.1-2.94Z"/>
          <path class="cls-17" d="M334.36,169.7c-18.5-46.03-58.02-47.28-86.98-43.38,20.17,9.51,41.93,26.83,53.55,55.72,19.5,48.5-40.89,99.38-40.89,99.38l-65.26,25.34c.48.23.74.35.74.35l97.96-38.04s60.39-50.88,40.89-99.38Z"/>
          <g class="cls-22">
            <path class="cls-18" d="M125.84,272.77c-3.33-13.83-39.31-46.87-18.86-95.28,10.37-24.54,46.43-36.79,60.88-43.65q-12.17-.38-12.18-.38s-47.08,2.94-67.52,42.88c-20.45,39.94-3.33,66.57,0,77.99,1.57,5.4,26.97,19.94,53.3,33.77-8.88-6.73-14.88-12.25-15.62-15.32Z"/>
          </g>
          <path class="cls-15" d="M150.13,273.16l.66-37.82s-9.95-4.63-16.63,5.36c-4.32,6.46.31,12.3.31,12.3,0,0-10.24-.72-13.9,5.24l29.56,14.92Z"/>
          <path class="cls-17" d="M126.16,261.05l23.97,12.1.66-35.13s-8.43,1.29-8.9,7.6c-.47,6.31.93,10.68.93,10.68,0,0-11.2,2.83-16.67,4.75Z"/>
          <path class="cls-10" d="M151.23,125.24s-48.37,2.3-67.52,42.88c-17.48,37.03-6.96,51.89-3.63,63.3,0,0,24.24-29.14,53.89-13.89,25.72,13.23,62.92,92.29,62.92,92.29l69.42-94.49c4.23-5.75,11.25-8.75,18.33-7.83,26,3.37,42.32,23.23,42.32,23.23,0,0,22-24.89,8.79-58.33-19.21-48.62-59.92-48.98-89.4-44.22l-95.1-2.94Z"/>
          <path class="cls-20" d="M149.15,125.16s16.34,35.16,30.89,38.57c10.72,1.7,12.65-2.3,12.65-2.3,0,0,8.43,12.52,19.42,10.82,10.99-1.7,16.41-10.82,16.41-10.82,0,0,11.18,6.21,17.56,0,6.38-6.21,22.97-35.23,22.97-35.23l-119.91-1.03Z"/>
          <g>
            <path class="cls-11" d="M151.74,240.15c-.7-.61-21.24-54.41-27.25-70.16-.92-2.4.21-5.1,2.57-6.13l13.74-6.04c2.64-1.16,5.69.24,6.54,2.99l13.21,42.53c1.11,3.57,2.42,7.08,3.94,10.49l17.62,39.79s-22.25-6.42-30.38-13.48Z"/>
            <path class="cls-13" d="M147.36,160.81s5.67-10.93,13.8-8.37c8.13,2.14,10.27,10.05,5.56,20.32-2.31,5.05-8.13,13.05-1.93,18.4,6.2,5.35,5.51,9.41,2.97,11.34s-8.44-3.17-10.11-8.53-2.05-9.41.83-16.48c2.89-7.07,5.67-17.55,0-19.05-5.67-1.5-9.3,8.27-9.3,8.27l-1.83-5.9Z"/>
            <polygon class="cls-4" points="131.12 162.08 129.07 155.51 136.84 152.35 138.99 158.62 131.12 162.08"/>
            <path class="cls-5" d="M141.84,150l-15.27,6.45c-2.25.95-4.8-.43-5.23-2.83l-1.81-9.91c-.3-1.66.53-3.33,2.04-4.09l11.41-5.75c1.77-.89,3.93-.28,4.96,1.41l5.66,9.22c1.22,1.99.39,4.6-1.77,5.51Z"/>
            <path class="cls-2" d="M123.08,147.95s8.7-7.44,17.93-7.68"/>
          </g>
          <g>
            <path class="cls-18" d="M136.97,97.33c-4.56,3.66-10.36,5.85-16.67,5.85-14.72,0-26.64-11.93-26.64-26.64s11.93-26.64,26.64-26.64c6.48,0,12.42,2.31,17.04,6.16"/>
            <path d="M137.38,97.83c-18.02,15.2-45.39,1.9-45.25-21.55.04-16.73,15.24-29.79,31.78-27.27,5.15.8,10.05,3.09,13.86,6.54.59.56-.17,1.48-.83,1-16.86-12.95-41.31-1.59-41.71,19.76-.27,14.94,13.09,27.12,27.95,25.64,4.8-.37,9.47-2.22,13.4-5.13.64-.5,1.43.48.81,1.01h0Z"/>
          </g>
          <g>
            <path class="cls-18" d="M284.5,97.33c4.56,3.66,10.36,5.85,16.67,5.85,14.72,0,26.64-11.93,26.64-26.64,0-14.72-11.93-26.64-26.64-26.64-6.48,0-12.42,2.31-17.04,6.16"/>
            <path d="M284.9,96.82c12.07,8.79,29.61,5.63,37.29-7.25,10.82-17.92-3.62-40.16-24.32-38.18-4.76.43-9.39,2.26-13.33,5.16-.63.49-1.43-.46-.83-1,3.76-3.5,8.65-5.87,13.83-6.71,16.75-2.71,32.08,10.52,32.2,27.43.21,16.91-14.93,30.43-31.7,28.01-5.2-.73-10.13-3.02-13.95-6.46-.59-.55.15-1.47.81-1.01h0Z"/>
          </g>
          <g>
            <circle class="cls-18" cx="210.51" cy="77.94" r="76.34"/>
            <path d="M288.02,77.94c.21,30.64-19.57,59.92-47.97,71.32-50.77,20.87-106.91-16.32-107.05-71.32-.31-55.09,56.43-93.28,107.3-71.92,28.55,11.52,48.2,41.16,47.72,71.92h0ZM285.68,77.94c.2-29.72-18.99-58.11-46.53-69.16-49.23-20.24-103.67,15.82-103.82,69.16-.31,53.43,54.73,90.48,104.07,69.76,27.69-11.18,46.75-39.92,46.28-69.76h0Z"/>
          </g>
          <g class="cls-22">
            <path class="cls-18" d="M209.8,1.6c-6.14,0-12.12.73-17.84,2.1,33.56,8.04,58.5,38.22,58.5,74.24s-24.95,66.21-58.5,74.24c5.72,1.37,11.7,2.1,17.84,2.1,42.16,0,76.34-34.18,76.34-76.34S251.96,1.6,209.8,1.6Z"/>
          </g>
          <path d="M106.64,75.99c8.23-5.67,21.72-8.06,28.04,1.56.47.67-.51,1.42-1.03.79-6.6-8.14-18.21-5.49-26.32-1.25-.7.41-1.37-.64-.69-1.1h0Z"/>
          <path d="M314.14,77.08c-6.44-2.55-13.76-5.12-20.56-2.64-2.14.8-4.03,2.19-5.76,3.89-.51.56-1.44-.15-1.03-.79,5.86-10.08,20.15-7.93,28.04-1.56.6.47,0,1.43-.69,1.1h0Z"/>
          <g>
            <ellipse class="cls-19" cx="185.93" cy="75.36" rx="15.39" ry="10.61"/>
            <path d="M202.22,75.36c.06,3.89-2.68,7.21-5.86,9.08-6.34,3.66-14.48,3.57-20.83-.01-7.78-4.47-7.78-13.55.18-17.81,8.26-4.85,25.5-2.75,26.51,8.75h0ZM200.42,75.36c.05-3.2-2.28-5.94-4.97-7.53-5.66-3.33-13.37-3.24-19.04.01-6.6,3.83-6.58,11.09.18,14.71,7.04,4.2,22.76,2.69,23.82-7.2h0Z"/>
          </g>
          <g>
            <ellipse class="cls-19" cx="240.37" cy="74.23" rx="15.39" ry="10.61"/>
            <path d="M256.65,74.23c.06,3.89-2.68,7.21-5.86,9.08-6.34,3.66-14.48,3.57-20.83-.01-7.78-4.47-7.78-13.55.18-17.81,8.26-4.85,25.5-2.75,26.51,8.75h0ZM254.86,74.23c.05-3.2-2.28-5.94-4.97-7.53-5.66-3.33-13.37-3.24-19.04.01-6.6,3.83-6.58,11.09.18,14.71,7.04,4.2,22.76,2.69,23.82-7.2h0Z"/>
          </g>
          <path d="M167.49,47.1c.13-.81.92-1.31,1.46-1.84,6.87-5.95,18.65-8.79,25.57-1.45.56.57-.23,1.47-.86.97-7.48-5.93-18.01-2.71-24.93,2.57.05-.06.08-.17.06-.26,0,.84-1.3.85-1.3,0h0Z"/>
          <path d="M232.49,39.26c.24-.52.85-.59,1.32-.7,8.38-.91,18.95.73,24.99,7.07.51.59-.3,1.43-.91.93-3.39-2.73-7.55-4.16-11.75-5.14-4.12-.88-8.42-1.58-12.65-1.41,0,0-.03,0-.03,0,.06-.02.22-.17.23-.29-.3.79-1.51.33-1.21-.46h0Z"/>
          <path class="cls-8" d="M137.35,56.04c.21-.81,8.36,47.14,43.23,60.37,8.5-11.66,34.82-27.45,60.99-3.26,13.32-1.48,44.39-29.95,42.09-57.12,4.81,16.06,10.64,68.81-44.34,98.25-5.92,2.48-13.03-7.58-12.73-15.58.3-7.99,7.7-8.59,8.59-.3s-10.68,22.8-23.25,23.09-23.23-15.1-22.93-23.09,11.84-9.18,11.25,1.48-11.25,17.17-23.68,10.95c-8.36-4.18-53.84-39.21-39.21-94.8Z"/>
          <path class="cls-24" d="M221.11,138.71c-.62,6.26-10.49,7.01-14.98,4.68-4.77-2.18-4.79-7.17.04-9.28,4.44-2.16,14.23-1.54,14.94,4.6h0ZM219.94,138.71c-.66-6.35-15.59-6.32-16.27,0,.73,6.14,15.52,6.11,16.27,0h0Z"/>
          <path class="cls-19" d="M191,155.3c1.85-3.07,8.52-13.41,3.21-15.41-6.28-2.11-5.42,4-3.92,7.89.53,1.45,1.24,2.83,2.05,4.15.31.48-.43.98-.76.52-2.33-3.21-4.48-7.36-3.74-11.55.68-3.21,4.34-3.59,6.95-2.61,1.82.52,3.14,2.55,3.05,4.4.01,1.79-.49,3.4-1.12,4.9-1.27,3.01-3,5.72-4.98,8.25-.35.46-1.08-.07-.74-.55h0Z"/>
          <path class="cls-12" d="M231.64,155.57c-4.27-6.11-8.74-19.79-.2-17.57,8.54,2.22-2.78,17.57-2.78,17.57"/>
          <g class="cls-23">
            <path class="cls-27" d="M191,155.3c1.85-3.07,8.52-13.41,3.21-15.41-6.28-2.11-5.42,4-3.92,7.89.53,1.45,1.24,2.83,2.05,4.15.31.48-.43.98-.76.52-2.33-3.21-4.48-7.36-3.74-11.55.68-3.21,4.34-3.59,6.95-2.61,1.82.52,3.14,2.55,3.05,4.4.01,1.79-.49,3.4-1.12,4.9-1.27,3.01-3,5.72-4.98,8.25-.35.46-1.08-.07-.74-.55h0Z"/>
          </g>
          <path class="cls-14" d="M231.64,155.57c-4.27-6.11-8.74-19.79-.2-17.57,8.54,2.22-2.78,17.57-2.78,17.57"/>
          <path class="cls-17" d="M287.03,65.89s25.03-14.13,40.11,4.24c-1.57-12.33-15.92-30.44-43.02-13.29l2.9,9.05Z"/>
          <path class="cls-17" d="M136.09,65.89s-25.03-14.13-40.11,4.24c1.57-12.33,15.92-30.44,43.02-13.29l-2.9,9.05Z"/>
          <g>
            <g>
              <path class="cls-28" d="M212.95,111.95c-2.98-2.14-3.66-6.31-1.52-9.29,1.04-1.44,2.57-2.4,4.33-2.68,1.75-.28,3.51.13,4.96,1.16,2.98,2.14,3.66,6.31,1.52,9.29l-1.64-1.18c1.49-2.07,1.02-4.97-1.06-6.46-1-.72-2.23-1.01-3.45-.81-1.22.2-2.29.86-3.01,1.87-1.49,2.07-1.02,4.97,1.06,6.46l-1.18,1.64Z"/>
              <path d="M212.99,112.17c-2.5-1.37-3.64-4.5-3.05-7.23,1.27-6.14,9.71-7.55,12.91-2.15,1.46,2.37,1.31,5.6-.43,7.77,0,0-.13.18-.13.18l-.18-.13c-.1-.07-1.78-1.28-1.81-1.3,0,0,.11-.19.11-.19,1.95-3.04-.66-7.24-4.21-6.59-3.57.45-4.78,5.26-2,7.55.03.03.18.16.21.2-.45.64-.95,1.28-1.43,1.88h0ZM212.92,111.74c.34-.54.67-1.05,1.04-1.55l.05.3-.06-.04c-3.8-2.39-2.31-8.42,2.09-9.03,3.1-.54,6.12,2.19,5.81,5.32-.09.98-.46,1.92-1.08,2.65l-.05-.3.03.02,1.61,1.16-.3.05.02-.03c1.4-2.12,1.38-4.98.02-7.02-5.87-7.72-16.18,1.61-9.18,8.49h0Z"/>
            </g>
            <g>
              <circle class="cls-28" cx="213.85" cy="111.33" r="2.24"/>
              <path d="M216.45,111.1c.44,3.69-4.97,4.14-5.21.47-.05-3.24,4.7-3.59,5.21-.47h0ZM215.7,111.17c-.11-2.72-4.06-2.33-3.7.33.39,2.17,3.69,1.87,3.7-.33h0Z"/>
            </g>
            <g>
              <circle class="cls-28" cx="221.14" cy="110.68" r="2.24"/>
              <path d="M223.73,110.44c.45,3.69-4.96,4.14-5.18.47-.03-3.22,4.67-3.55,5.18-.47h0ZM223,110.51c-.1-2.75-4.1-2.35-3.73.34.4,2.18,3.7,1.87,3.73-.34h0Z"/>
            </g>
          </g>
          <g>
            <g>
              <path class="cls-18" d="M197.59,94.98s13.11-23.65,23.6-18.29c4.97,3.66,3.35,20.45-.68,25.97"/>
              <path d="M196.99,94.65c3.93-7.2,8.56-14.48,15.91-18.64,2.65-1.46,6.2-1.93,8.96-.36,2.24,1.77,2.87,4.4,3.29,6.95.64,4.72.1,9.44-1.13,14-.67,2.24-1.46,4.5-2.97,6.47-.23.3-.66.36-.96.13-.29-.22-.35-.64-.15-.94,3.27-5.87,4.21-15.98,2.05-22.34-.37-.95-.91-1.75-1.54-2.23l.17.11c-4.6-2.18-9.43,1.85-12.67,5.05-3.73,3.7-6.9,8.06-9.76,12.47-.44.73-1.59.11-1.2-.66h0Z"/>
            </g>
            <g>
              <path class="cls-18" d="M222.02,78.06c-.41-.63-1.3-.74-1.87-.23-2.5,2.21-8.6,8.79-9.07,20.63-.14,6.6,9.16,8.05,10.89,1.82,1.64-5.9,4.41-15.58.05-22.22Z"/>
              <path d="M221.27,78.54c-.28-.32-.57,0-.78.21-5.27,5.08-8.1,12.33-8.51,19.58-.32,3.37,3.16,5.94,6.34,4.91,2.63-.73,3.05-3.47,3.71-5.85.36-1.28.65-2.58.91-3.87.98-4.98,1.21-10.64-1.66-14.98h0ZM222.76,77.57c3.77,6.17,2.24,13.63.61,20.18-.35,1.22-.65,2.79-1.21,3.99-2.08,4.49-9.13,4.23-11.24-.13-.73-1.36-.82-3.08-.67-4.37.4-7.41,3.4-14.83,8.99-19.84,0,0,.27-.25.29-.26.93-.85,2.55-.66,3.22.43h0Z"/>
            </g>
            <path class="cls-17" d="M222.02,78.06c-.41-.63-1.3-.74-1.87-.23-2.5,2.21-8.6,8.79-9.07,20.63-.14,6.6,9.16,8.05,10.89,1.82,1.64-5.9,4.41-15.58.05-22.22Z"/>
          </g>
          <ellipse cx="189.26" cy="80.28" rx="4.21" ry="4.74"/>
          <ellipse cx="237.71" cy="79.15" rx="4.21" ry="4.74"/>
          <path class="cls-19" d="M190.16,116.55c11.13,8.89,23.44,11.1,36.57,5.36,4.03-1.73,7.9-3.99,11.5-6.72.06-.05.14-.04.19.02-2.54,3.74-6.6,6.63-10.6,8.93-8.16,4.56-18.74,5.85-27.28,1.47-4.14-2.09-7.92-5.08-10.57-8.89-.08-.12.08-.27.2-.17h0Z"/>
          <path class="cls-1" d="M201.94,297.11c-2.72,1.48-108.28-52.55-108.28-52.55,0,0-47.29-29.04-81.86,15.21-34.57,44.25,24.74,95.41,81.86,118.92,57.11,23.51,66.78,29.73,77.5,31.11s26.82,9.68,55.42-21.43c28.59-31.11,59.56-64.85,59.56-64.85,0,0,17.13-22.96,0-42.32-17.13-19.36-52.39-1.38-84.2,15.9Z"/>
          <g class="cls-22">
            <path class="cls-18" d="M198.94,384.54c-10.72-1.38-20.39-7.61-77.5-31.11-41.4-17.04-94.52-58.42-107.45-96.76-.48.59-.97,1.18-1.44,1.8-34.57,44.25,24.74,95.41,81.86,118.92,57.11,23.51,66.78,29.73,77.5,31.11,10.72,1.38,26.82,9.68,55.42-21.43,1.78-1.93,3.56-3.88,5.35-5.82-15.7,8.78-26.08,4.28-33.73,3.3Z"/>
          </g>
          <path class="cls-1" d="M277.42,274.95s62.92-57,96.11-12.06c33.19,44.94-56.12,132.58-162.6,139.75l66.49-127.69Z"/>
          <g class="cls-22">
            <path class="cls-18" d="M371.7,262.28c-1.65-2.24-3.38-4.22-5.17-5.98-4.09,40.85-63.89,93.23-138.41,109.21-5.64,10.83-11.95,22.95-19.01,36.51,106.48-7.17,195.78-94.81,162.6-139.75Z"/>
          </g>
          <path class="cls-10" d="M94.48,379.09c-6.54-2.9-11.39-8.67-13.07-15.62-4.42-18.28-16.86-54.01-47.48-60.13-41.48-8.3-13.08,79.63,12.45,99.31,22.96,17.69,49.6-3.05,71.11-13.36l-23.01-10.19Z"/>
          <path class="cls-3" d="M150.13,286.47l.75-58.15c.51-4.15,4.04-7.27,8.22-7.27h94.55c4.78,0,8.57,4.04,8.26,8.8l-3.56,56.18-61.26,23.79-46.95-23.36Z"/>
          <path class="cls-15" d="M259.67,270.65s19.97-5.87,15.27-22.91c-4.7-17.04-27.99-12.34-36.61-9.99-8.62,2.35-23.8,12.87-20.62,21.42,2.33,6.26,23.29,3.34,34.3,1.34,3.6-.65,6.97,1.94,7.27,5.58l.38,4.57Z"/>
          <path class="cls-17" d="M239.11,246.28c8.44-2.3,30.95-6.85,36.3,8.96.42-2.3.34-4.89-.46-7.82-4.7-17.04-27.99-12.34-36.61-9.99-8.62,2.35-23.8,12.87-20.62,21.42.28.76.84,1.38,1.62,1.89,3.5-6.55,13.42-12.73,19.77-14.46Z"/>
          <path class="cls-15" d="M263.53,290.59s19.97-5.87,15.27-22.91-27.99-12.34-36.61-9.99-23.8,12.87-20.62,21.42c2.33,6.26,23.29,3.34,34.3,1.34,3.6-.65,6.97,1.94,7.27,5.58l.38,4.57Z"/>
          <path class="cls-17" d="M242.71,267.22c8.44-2.3,30.95-6.85,36.3,8.96.42-2.3.34-4.89-.46-7.82-4.7-17.04-27.99-12.34-36.61-9.99-8.62,2.35-23.8,12.87-20.62,21.42.28.76.84,1.38,1.62,1.89,3.5-6.55,13.42-12.73,19.77-14.46Z"/>
          <path class="cls-10" d="M168.14,281.94s7.94-17.52-7.98-22.24-32.73,23.08-44.66,43.08c-11.93,20-28.44,87.2-11.93,93.68,16.51,6.48,30.06-22.4,22.99-27.71-7.07-5.31-9.12,31.83-.59,36.55,5.31,2.36,15.04-4.9,15.04-4.9l23.45,7.89s25.5,14.39,46.47-5.65c20.97-20.05,75.21-79.12,75.21-79.12,0,0,17.51-23.76,0-42.32-17.51-18.56-43.6-3.53-43.6-3.53,0,0-28.36,10.38-40.6,19.43l-33.8-15.17Z"/>
          <g>
            <path class="cls-26" d="M242.54,277.68s5.06,42.65,38.08,51.49c17.16-16.57,14.25-41.7,5.53-47.96-8.72-6.26-20.69-13.09-43.6-3.53Z"/>
            <path d="M243.07,277.99c.08-.06.11-.23.1-.26.04.21.09.68.13.9,3.53,21.1,15.33,44.12,37.47,49.94,0,0-.6.16-.59.15,5.35-6.22,8.91-13.64,10.16-21.44,1.19-7.9.74-18.28-5.29-23.97-11.29-8.85-22.62-10.39-36.35-6.75-1.59.37-4.02,1.07-5.63,1.42h0ZM242,277.36c11.26-6.29,25.63-8.81,37.59-2.81,3.01,1.45,5.68,3.12,8.34,5.12,2.83,2.23,4.64,5.56,5.72,8.82,4.72,14.52-.83,31.79-12.61,41.12,0,0-.24.25-.24.25l-.35-.1c-22.27-5.83-34.4-28.68-38.2-49.89-.02-.29-.24-1.29-.26-1.59-.03-.3-.13-.62,0-.93h0Z"/>
          </g>
          <path class="cls-7" d="M268.3,155.57s17.96,32.65-1.8,59.77"/>
          <path class="cls-3" d="M168.14,281.94s-33.57,70.15-27.13,118.46l14.73,4.51s1.27-71.85,26.38-116.7l-13.98-6.27Z"/>
          <circle class="cls-6" cx="165.85" cy="232.67" r="4.7"/>
          <circle class="cls-16" cx="178.77" cy="232.67" r="2.35"/>
          <g>
            <path class="cls-26" d="M155.74,404.92s12.4-27.81,33.67-30.78c22.39-4.13,37.53,12.45,37.53,12.45l-16.01,16.05s-13.9,16.15-39.76,8.6c-15.42-4.89-15.42-6.32-15.42-6.32Z"/>
            <path d="M155.14,404.79c5.83-12.12,15.41-24.9,28.36-29.8,15.25-5.3,32.73-.21,43.9,11.18,0,0,.38.37.38.38,0,0-.4.48-.4.48-3.61,4.39-7.4,8.62-11.25,12.8-1.98,2.08-4.63,5.2-6.69,6.88-11.14,9.48-27.27,10.66-40.55,5.45-3.53-1.33-7.03-2.71-10.38-4.48-1.13-.64-2.39-1.24-3.24-2.28-.1-.15-.2-.39-.14-.59h0ZM156.35,405.05c.03-.12.01-.25-.03-.36-.02-.04,0-.03,0-.03,0,0,0,0,.03.01,4.67,2.37,10.26,3.47,15.29,4.98,1.65.29,3.63.84,5.28,1.03,1.19.13,2.37.27,3.55.42l3.55.11c9.35-.04,18.86-3.33,25.58-9.91,5.45-5.12,11.17-10.39,16.92-15.15,0,0-.02.86-.02.86-10.2-10.35-25.79-15.39-39.98-11.64-14.16,3.92-23.91,17.27-30.15,29.68h0Z"/>
          </g>
          <path class="cls-9" d="M45.8,307.54c-1.25-.93-13.72-8.19-25.84-2.17-12.12,6.03-5.84,46.91,9.64,75.6,15.48,28.68,33.87,31.81,46.8,27.29,7.15-19.32-5.61-82.1-30.59-100.72Z"/>
          <path class="cls-21" d="M270.96,161.51s15.68,34.53-11,62.47c-6.31-2.92-9.88-2.92-9.88-2.92,0,0,22.79-24.23,20.89-59.55Z"/>
        </g>
      </g>
    </g>
  </g>
</svg>