<?xml version="1.0" encoding="UTF-8"?>
<svg id="Capa_2" data-name="Capa 2" xmlns="http://www.w3.org/2000/svg" viewBox="0 0 435.5 308.9">
  <defs>
    <style>
      .cls-1 {
        fill: #fff;
        stroke: #000;
        stroke-miterlimit: 10;
        stroke-width: 4.11px;
      }

      .cls-2 {
        fill: #222221;
      }
    </style>
  </defs>
  <g id="Capa_1-2" data-name="Capa 1">
    <path class="cls-1" d="M93.32,179.19h24.33S1.52,307.29,1.52,307.29l160.25-128.1h249.55c12.22,0,22.12-9.9,22.12-22.12V24.17c0-12.22-9.9-22.12-22.12-22.12H93.32c-12.22,0-22.12,9.9-22.12,22.12v132.9c0,12.22,9.9,22.12,22.12,22.12Z"/>
    <g>
      <path class="cls-2" d="M117.9,81.02c-4.51,0-8.16-1.04-10.94-3.11s-4.53-4.82-5.25-8.25c-.72-3.43-.38-7.07,1.01-10.91l4.54-1.26c-1.32,3.01-1.77,5.88-1.37,8.62.4,2.74,1.65,4.94,3.73,6.6,2.09,1.66,4.87,2.5,8.36,2.5,2.76,0,4.97-.46,6.64-1.39,1.67-.92,2.87-2.12,3.6-3.59.73-1.47,1.1-3.09,1.1-4.86,0-2.27-.47-4.18-1.41-5.73-.94-1.55-2.34-2.87-4.19-3.96-1.85-1.08-4.38-2.13-7.58-3.15-3.51-1.06-6.31-2.23-8.38-3.5-2.07-1.27-3.57-2.73-4.5-4.38-.93-1.65-1.39-3.63-1.39-5.92,0-2.79.62-5.19,1.87-7.2,1.24-2.01,3.01-3.54,5.29-4.59,2.28-1.05,4.96-1.57,8.03-1.57,3.76,0,6.98.8,9.66,2.4,2.68,1.6,4.53,3.99,5.54,7.16,1.01,3.17.92,6.95-.27,11.34l-4.65,1.26c1.39-3.95,1.69-7.14.9-9.58-.79-2.44-2.23-4.18-4.32-5.22-2.09-1.04-4.42-1.55-7.01-1.55-2.37,0-4.31.41-5.82,1.22-1.51.81-2.6,1.86-3.28,3.13-.67,1.27-1.01,2.61-1.01,4.01,0,1.73.28,3.17.84,4.33.56,1.16,1.64,2.25,3.24,3.27,1.6,1.02,3.92,2.05,6.97,3.09,4.07,1.28,7.31,2.66,9.7,4.12,2.39,1.47,4.11,3.14,5.16,5.01,1.05,1.88,1.57,4.09,1.57,6.66,0,3.13-.69,5.83-2.07,8.08-1.38,2.26-3.31,3.97-5.78,5.14-2.48,1.17-5.32,1.76-8.55,1.76Z"/>
      <path class="cls-2" d="M155.52,80.88c-3.78,0-7.04-.84-9.77-2.52-2.73-1.68-4.82-4.02-6.26-7.03-1.44-3.01-2.16-6.51-2.16-10.51s.74-7.58,2.21-10.6c1.48-3.02,3.58-5.35,6.31-6.97,2.73-1.63,5.98-2.44,9.73-2.44s7,.81,9.72,2.42c2.72,1.62,4.8,3.92,6.24,6.92,1.44,3,2.16,6.54,2.16,10.64s-.73,7.62-2.2,10.64c-1.46,3.02-3.56,5.35-6.28,6.99-2.72,1.64-5.96,2.46-9.72,2.46ZM155.6,75.47c2.76,0,5.18-.59,7.26-1.78,2.09-1.18,3.7-2.88,4.83-5.09s1.7-4.83,1.7-7.86-.56-5.57-1.68-7.75c-1.12-2.18-2.74-3.87-4.85-5.05-2.11-1.18-4.54-1.78-7.3-1.78s-5.23.59-7.34,1.78c-2.11,1.18-3.73,2.87-4.87,5.07-1.13,2.2-1.7,4.8-1.7,7.81s.57,5.6,1.72,7.79c1.15,2.18,2.77,3.87,4.87,5.07,2.1,1.2,4.55,1.79,7.36,1.79Z"/>
      <path class="cls-2" d="M174.44,41.99h5.09c3.46,8.14,6.16,14.59,8.09,19.35,1.44,3.77,2.47,6.71,3.09,8.81.62,2.1,1.16,4.14,1.63,6.14h.88l.33,2.77h-3.99l-15.11-37.07ZM182.97,93.94c-1.71,0-3.25-.46-4.61-1.37-1.37-.91-2.39-2.13-3.07-3.64-.68-1.52-.91-3.14-.7-4.86l2.42-1.81c-.22,1.13-.09,2.19.4,3.18.49.99,1.23,1.76,2.23,2.33,1,.57,2.12.85,3.37.85,1.41,0,2.58-.28,3.49-.85s1.8-1.61,2.65-3.13c.85-1.52,1.87-3.79,3.04-6.83l.59-1.33c.15-.96.62-2.68,1.43-5.14,1-3.06,2.39-6.89,4.17-11.49,1.78-4.6,4.2-10.55,7.25-17.85h5.12l-15.33,37.74c-.15.32-.29.65-.42,1-.13.34-.27.69-.42,1.04-1.27,3.06-2.4,5.4-3.39,7.01-.99,1.62-2.14,2.88-3.46,3.79-1.32.91-2.9,1.37-4.76,1.37Z"/>
      <path class="cls-2" d="M247.67,75.14c2.88,0,5.14-.65,6.77-1.96,1.63-1.31,2.76-2.98,3.39-5.01.62-2.03.93-4.31.93-6.83V26.71h5.49v35.29c0,3.63-.54,6.85-1.61,9.67-1.07,2.82-2.82,5.1-5.25,6.83-2.43,1.73-5.58,2.59-9.46,2.59-3.49,0-6.42-.72-8.8-2.15-2.38-1.43-4.17-3.39-5.36-5.86-1.2-2.48-1.79-5.32-1.79-8.53,0-1.53.16-3.05.48-4.55.32-1.5.62-2.66.91-3.48l4.21.96c-.29.79-.56,1.78-.79,2.98-.23,1.2-.35,2.45-.35,3.75,0,2.27.48,4.22,1.43,5.86.95,1.64,2.27,2.89,3.97,3.76,1.7.86,3.64,1.29,5.84,1.29Z"/>
      <path class="cls-2" d="M281.09,80.88c-2.17,0-4.14-.38-5.89-1.13-1.76-.75-3.17-1.89-4.23-3.42-1.06-1.53-1.59-3.43-1.59-5.7,0-2.84.98-5.12,2.95-6.86,1.96-1.74,4.76-3,8.38-3.77,3.62-.78,8.18-1.18,13.67-1.2.66-.02,1.34-.03,2.05-.02.71.01,1.43.03,2.16.06l-.15,1.89c-8.15-.2-14.28.43-18.39,1.89-4.11,1.46-6.17,3.71-6.17,6.77,0,1.36.38,2.5,1.13,3.44.76.94,1.8,1.65,3.13,2.13,1.33.48,2.85.72,4.56.72,2.81,0,5.36-.55,7.67-1.65,2.31-1.1,4.15-2.75,5.53-4.96,1.38-2.21,2.07-4.88,2.07-8.01v-4.48c0-2.29-.39-4.22-1.17-5.77-.78-1.55-1.97-2.72-3.57-3.5-1.6-.78-3.64-1.17-6.13-1.17-2.24,0-4.31.44-6.18,1.31-1.88.88-3.25,2.15-4.1,3.81-.85,1.67-.94,3.64-.26,5.94l-3.26-.33c-1.07-2.89-1.16-5.56-.26-8.01.9-2.45,2.63-4.4,5.18-5.85,2.55-1.44,5.61-2.16,9.17-2.16,4.88,0,8.67,1.26,11.38,3.79,2.71,2.53,4.06,6.36,4.06,11.49v14.95c0,1.5.13,2.58.4,3.24.27.65.76.98,1.46.98.41,0,.85-.04,1.3-.11.45-.07.81-.19,1.08-.33v5.03s-.09.08-.13.09c-.04.01-.08.03-.13.06-.49.22-1.06.41-1.72.57-.66.16-1.34.24-2.05.24-1.49,0-2.59-.43-3.29-1.29-.71-.86-1.13-2.31-1.28-4.35s-.04-4.95.33-8.75h-.26c-.76,3.16-1.96,5.81-3.62,7.95-1.66,2.15-3.67,3.76-6.02,4.85-2.35,1.08-4.96,1.63-7.81,1.63Z"/>
      <path class="cls-2" d="M314.43,37c-1.34,0-2.37-.33-3.09-.98-.72-.65-1.08-1.61-1.08-2.87s.36-2.21,1.08-2.85c.72-.64,1.75-.96,3.09-.96s2.36.32,3.06.96c.7.64,1.04,1.59,1.04,2.85s-.35,2.21-1.04,2.87c-.7.65-1.71.98-3.06.98ZM311.94,41.99c.81.15,1.63.22,2.47.22s1.67-.07,2.47-.22v37.7h-4.94v-37.7Z"/>
      <path class="cls-2" d="M324.42,41.99h5.34l-1.17,13.8h.22c.63-3.3,1.63-6.07,3-8.29,1.37-2.22,3-3.88,4.9-4.99s3.98-1.66,6.22-1.66c2.39,0,4.39.58,5.98,1.74,1.6,1.16,2.79,2.84,3.59,5.05.79,2.21,1.23,4.93,1.3,8.16h.22c.61-3.38,1.61-6.2,3-8.45,1.39-2.26,3.03-3.9,4.92-4.94,1.89-1.04,3.96-1.55,6.2-1.55,2.98,0,5.32.7,7.04,2.11,1.72,1.41,2.93,3.36,3.62,5.86.7,2.5,1.04,5.53,1.04,9.08v21.79h-4.79v-21.01c0-3.01-.32-5.41-.97-7.2-.65-1.79-1.59-3.08-2.84-3.88-1.24-.8-2.84-1.2-4.79-1.2s-3.79.56-5.58,1.68c-1.79,1.12-3.27,2.76-4.43,4.92-1.16,2.16-1.78,4.75-1.85,7.79v18.9h-4.87v-20.79c0-2.98-.32-5.4-.95-7.23-.63-1.84-1.57-3.18-2.82-4.01-1.24-.84-2.83-1.26-4.76-1.26s-3.88.62-5.71,1.87c-1.83,1.25-3.32,3.02-4.48,5.33-1.16,2.31-1.74,4.95-1.74,7.94v18.17h-4.87v-37.7Z"/>
      <path class="cls-2" d="M389.34,60.34c0,3.06.51,5.73,1.52,8.01,1.01,2.28,2.51,4.06,4.5,5.33,1.99,1.27,4.39,1.91,7.19,1.91,2.07,0,3.93-.33,5.58-1,1.65-.67,2.96-1.64,3.93-2.92.98-1.28,1.51-2.84,1.61-4.66l3.26,1.22c-.05,2.29-.66,4.4-1.83,6.33-1.17,1.92-2.84,3.46-5,4.61-2.16,1.15-4.7,1.72-7.63,1.72-3.76,0-6.95-.87-9.57-2.61-2.62-1.74-4.6-4.12-5.93-7.16-1.33-3.03-1.99-6.55-1.99-10.54s.74-7.47,2.21-10.43c1.48-2.96,3.53-5.25,6.17-6.88,2.63-1.63,5.72-2.44,9.26-2.44s6.62.86,9.24,2.57c2.62,1.71,4.4,4.09,5.34,7.12.94,3.03.77,6.47-.49,10.32l-28,.04.07-1.96,24.3-.04c.63-2.49.58-4.72-.16-6.68-.74-1.96-2.03-3.48-3.84-4.57-1.82-1.08-3.96-1.63-6.42-1.63-2.76,0-5.14.57-7.14,1.72-2,1.15-3.53,2.8-4.59,4.96-1.06,2.16-1.59,4.72-1.59,7.68Z"/>
      <path class="cls-2" d="M140.88,146.51v-24.75h-31.25v24.75h-5.49v-52.98h5.49v25.16h31.25v-25.16h5.6v52.98h-5.6Z"/>
      <path class="cls-2" d="M164.6,147.7c-2.17,0-4.14-.38-5.89-1.13-1.76-.75-3.17-1.89-4.23-3.42-1.06-1.53-1.59-3.43-1.59-5.7,0-2.84.98-5.12,2.95-6.86,1.96-1.74,4.76-3,8.38-3.77,3.62-.78,8.18-1.18,13.67-1.2.66-.02,1.34-.03,2.05-.02.71.01,1.43.03,2.16.06l-.15,1.89c-8.15-.2-14.28.43-18.39,1.89-4.11,1.46-6.17,3.71-6.17,6.77,0,1.36.38,2.5,1.13,3.44.76.94,1.8,1.65,3.13,2.13,1.33.48,2.85.72,4.56.72,2.81,0,5.36-.55,7.67-1.65,2.31-1.1,4.15-2.75,5.53-4.96,1.38-2.21,2.07-4.88,2.07-8.01v-4.48c0-2.29-.39-4.22-1.17-5.77-.78-1.55-1.97-2.72-3.57-3.5-1.6-.78-3.64-1.17-6.13-1.17-2.24,0-4.31.44-6.18,1.31-1.88.88-3.25,2.15-4.1,3.81-.85,1.67-.94,3.64-.26,5.94l-3.26-.33c-1.07-2.89-1.16-5.56-.26-8.01.9-2.45,2.63-4.4,5.18-5.85,2.55-1.44,5.61-2.16,9.17-2.16,4.88,0,8.67,1.26,11.38,3.79,2.71,2.53,4.06,6.36,4.06,11.49v14.95c0,1.5.13,2.58.4,3.24.27.65.76.98,1.46.98.41,0,.85-.04,1.3-.11.45-.07.81-.19,1.08-.33v5.03s-.09.08-.13.09c-.04.01-.08.03-.13.06-.49.22-1.06.41-1.72.57-.66.16-1.34.24-2.05.24-1.49,0-2.59-.43-3.29-1.29-.71-.86-1.13-2.31-1.28-4.35s-.04-4.95.33-8.75h-.26c-.76,3.16-1.96,5.81-3.62,7.95-1.66,2.15-3.67,3.76-6.02,4.85-2.35,1.08-4.96,1.63-7.81,1.63Z"/>
      <path class="cls-2" d="M191.13,108.82h5.09c3.46,8.14,6.16,14.59,8.09,19.35,1.44,3.77,2.47,6.71,3.09,8.81.62,2.1,1.16,4.14,1.63,6.14h.88l.33,2.77h-3.99l-15.11-37.07ZM199.66,160.76c-1.71,0-3.25-.46-4.61-1.37-1.37-.91-2.39-2.13-3.07-3.64-.68-1.52-.91-3.14-.7-4.86l2.42-1.81c-.22,1.13-.09,2.19.4,3.18.49.99,1.23,1.76,2.23,2.33,1,.57,2.12.85,3.37.85,1.41,0,2.58-.28,3.49-.85s1.8-1.61,2.65-3.13c.85-1.52,1.87-3.79,3.04-6.83l.59-1.33c.15-.96.62-2.68,1.43-5.14,1-3.06,2.39-6.89,4.17-11.49,1.78-4.6,4.2-10.55,7.25-17.85h5.12l-15.33,37.74c-.15.32-.29.65-.42,1-.13.34-.27.69-.42,1.04-1.27,3.06-2.4,5.4-3.39,7.01-.99,1.62-2.14,2.88-3.46,3.79-1.32.91-2.9,1.37-4.76,1.37Z"/>
      <path class="cls-2" d="M257.96,146.51l.95-11.25h-.26c-.93,4.09-2.67,7.18-5.22,9.27-2.55,2.08-5.72,3.13-9.5,3.13-3.37,0-6.31-.81-8.84-2.44-2.53-1.63-4.46-3.96-5.8-6.99-1.34-3.03-2.01-6.6-2.01-10.69s.66-7.82,1.98-10.8c1.32-2.98,3.2-5.24,5.65-6.77,2.45-1.53,5.4-2.29,8.84-2.29,2.81,0,5.23.57,7.28,1.72s3.71,2.77,5,4.88c1.28,2.11,2.19,4.61,2.73,7.49h.29c-.02-.84-.09-1.94-.18-3.29-.12-1.23-.23-2.34-.31-3.33-.09-.99-.13-2-.13-3.03v-19.09h4.87v53.5h-5.34ZM258.32,127.68c0-3.11-.61-5.77-1.83-7.97-1.22-2.21-2.85-3.87-4.9-4.99-2.05-1.12-4.31-1.68-6.77-1.68-2.61,0-4.91.57-6.9,1.72-1.99,1.15-3.54,2.82-4.67,5.01-1.12,2.2-1.68,4.8-1.68,7.81s.55,5.62,1.67,7.84c1.11,2.22,2.67,3.92,4.68,5.09,2.01,1.17,4.34,1.76,6.97,1.76,2.83,0,5.25-.57,7.25-1.72,2-1.15,3.53-2.81,4.59-4.99s1.59-4.8,1.59-7.86Z"/>
      <path class="cls-2" d="M273.07,127.17c0,3.06.51,5.73,1.52,8.01,1.01,2.28,2.51,4.06,4.5,5.33,1.99,1.27,4.39,1.91,7.19,1.91,2.07,0,3.93-.33,5.58-1,1.65-.67,2.96-1.64,3.93-2.92.98-1.28,1.51-2.84,1.61-4.66l3.26,1.22c-.05,2.29-.66,4.4-1.83,6.33-1.17,1.92-2.84,3.46-5,4.61-2.16,1.15-4.7,1.72-7.63,1.72-3.76,0-6.95-.87-9.57-2.61-2.62-1.74-4.6-4.12-5.93-7.16-1.33-3.03-1.99-6.55-1.99-10.54s.74-7.47,2.21-10.43c1.48-2.96,3.53-5.25,6.17-6.88,2.63-1.63,5.72-2.44,9.26-2.44s6.62.86,9.24,2.57c2.62,1.71,4.4,4.09,5.34,7.12.94,3.03.77,6.47-.49,10.32l-28,.04.07-1.96,24.3-.04c.63-2.49.58-4.72-.16-6.68-.74-1.96-2.03-3.48-3.84-4.57-1.82-1.08-3.96-1.63-6.42-1.63-2.76,0-5.14.57-7.14,1.72-2,1.15-3.53,2.8-4.59,4.96-1.06,2.16-1.59,4.72-1.59,7.68Z"/>
    </g>
  </g>
</svg>