<?xml version="1.0" encoding="UTF-8"?>
<svg xmlns="http://www.w3.org/2000/svg" xmlns:xlink="http://www.w3.org/1999/xlink" viewBox="0 0 790.33 472.35">
  <defs>
    <style>
      .cls-1 {
        fill: #ff5f5f;
      }

      .cls-1, .cls-2, .cls-3, .cls-4, .cls-5, .cls-6, .cls-7, .cls-8, .cls-9, .cls-10, .cls-11 {
        stroke-miterlimit: 10;
      }

      .cls-1, .cls-2, .cls-3, .cls-4, .cls-5, .cls-6, .cls-7, .cls-8, .cls-10, .cls-11 {
        stroke: #000;
      }

      .cls-1, .cls-2, .cls-4 {
        stroke-width: 2.12px;
      }

      .cls-12, .cls-13 {
        opacity: .66;
      }

      .cls-12, .cls-13, .cls-14 {
        mix-blend-mode: multiply;
      }

      .cls-15, .cls-6, .cls-10 {
        fill: #fff;
      }

      .cls-16, .cls-5, .cls-7, .cls-9 {
        fill: none;
      }

      .cls-2, .cls-13, .cls-8, .cls-17, .cls-11, .cls-14 {
        fill: #ffd95a;
      }

      .cls-3, .cls-7, .cls-8, .cls-9, .cls-10 {
        stroke-width: 3.72px;
      }

      .cls-3, .cls-7, .cls-8, .cls-9, .cls-10, .cls-11 {
        stroke-linecap: round;
      }

      .cls-4 {
        fill: #94eacf;
      }

      .cls-5 {
        stroke-width: 2.5px;
      }

      .cls-18 {
        isolation: isolate;
      }

      .cls-6 {
        stroke-width: 5.67px;
      }

      .cls-9 {
        stroke: #ffd95a;
      }

      .cls-19 {
        fill: #a6e0ff;
      }

      .cls-11 {
        stroke-width: 4.97px;
      }

      .cls-20 {
        clip-path: url(#clippath);
      }
    </style>
    <clipPath id="clippath">
      <path class="cls-16" d="M723.55,469.52H65.79c-36.33,0-65.79-29.45-65.79-65.79L1,49.53h789.34l-1,354.2c0,36.33-29.45,65.79-65.79,65.79Z"/>
    </clipPath>
  </defs>
  <g class="cls-18">
    <g id="Capa_2" data-name="Capa 2">
      <g id="Capa_1-2" data-name="Capa 1">
        <g>
          <rect class="cls-6" x="60.22" y="2.83" width="687.73" height="466.69" rx="57.32" ry="57.32"/>
          <g>
            <path class="cls-19" d="M117.63,466.58c-29.98,0-54.38-24.39-54.38-54.38V63.1h681.85v349.11c0,29.98-24.39,54.38-54.38,54.38H117.63Z"/>
            <path d="M742.16,66.04v346.16c0,28.36-23.07,51.43-51.43,51.43H117.63c-28.36,0-51.43-23.07-51.43-51.43V66.04h675.96M748.04,60.15H60.31v352.05c0,31.66,25.66,57.32,57.32,57.32h573.09c31.66,0,57.32-25.66,57.32-57.32V60.15h0Z"/>
          </g>
          <g class="cls-20">
            <g>
              <path class="cls-11" d="M569.81,180.96s9.05-13.25,21.36-36.7c16-30.49,32.63-64.75,46.83-55.58,7.62,4.92,18.54,9.99-6.65,74.65,16.14-35.92,30.87-62.78,42.23-56.28,16.95,9.7,13.03,24.1-13.47,78.44,17.78-35.68,32.13-62.88,43.23-55.61,15.55,10.18,5.4,22.89-16.92,72.86,14.69-24.04,21.28-47.92,33.59-41.07,7.89,4.39,4.14,14.08-10.71,52.26-3.89,22-42.49,75.81-60.47,78.74,0,0-58.04,271.04-69.16,272.85-32.07,5.23-178.99,0-178.99,0-5.25-13.41,150.51-332.58,150.51-332.58,0,0-63.75-65.02-42.72-92.77,18.76-21.92,51.85,32.98,61.36,40.79Z"/>
              <g class="cls-12">
                <path class="cls-17" d="M527.96,565.53c-7.21,1.18-20.22,1.82-36.06,2.12,37.52.47,75.94.26,90.54-2.12,11.11-1.81,69.15-272.85,69.15-272.85,0,0-112.53,271.04-123.64,272.85Z"/>
              </g>
              <path d="M569.69,179.27c20.11-2.32,41.65,3.93,55.55,19.27,13.91,15.08,17.5,37.49,14.33,57.06-.32,1.94-3.18,1.87-3.39-.09-.25-2.42-.42-4.82-.6-7.2-.45-3.99-1.01-8.26-1.75-12.21-.24-1.09-.9-3.94-1.14-5.09-4.95-19.81-16.42-34.37-35.66-42.17-8.57-3.46-17.98-5.53-27.22-6.19-1.98-.14-2.14-3.08-.12-3.39h0Z"/>
              <g>
                <path class="cls-17" d="M252.99,222.24c4.19,19.82-24.33,42.64-44.15,46.84-19.82,4.19-39.29-8.47-43.48-28.29-4.19-19.82,8.47-39.29,28.29-43.48,19.82-4.19,55.15,5.12,59.34,24.94Z"/>
                <path d="M254.84,221.85c4.91,24.46-33.51,53.13-56.07,51.16-17.64-.51-33.61-14.17-37.07-31.45-4.29-18.73,6.87-39.35,25.06-45.64,19.82-7.91,63.22,2.34,68.08,25.93h0ZM251.15,222.63c-5.32-20.52-44.78-27.81-61.97-20.48-14.68,5.71-23.56,22.5-20.15,37.85,3.18,16.14,19.15,28.12,35.58,26.54,18.08-1.25,50.45-23.53,46.55-43.92h0Z"/>
              </g>
              <g>
                <path class="cls-17" d="M395.47,194.1c-4.19-19.82,24.33-42.64,44.15-46.84,19.82-4.19,39.29,8.47,43.48,28.29,4.19,19.82-8.47,39.29-28.29,43.48-19.82,4.19-55.15-5.12-59.34-24.94Z"/>
                <path d="M393.59,194.5c-4.96-24.35,33.77-52.25,56.03-50.03,17,.74,32.23,14,35.52,30.66,3.99,18.08-6.5,37.65-23.93,44.03-19.52,7.96-62.37-1.4-67.63-24.66h0ZM397.34,193.71c4.93,21.55,48.62,30.19,65.85,20.2,13.57-6.81,21.18-23.13,17.86-37.92-3.01-14.81-16.57-26.59-31.7-27.32-19.66-2.15-56.13,23.49-52.02,45.03h0Z"/>
              </g>
              <g>
                <path class="cls-17" d="M242.81,519.58c46.43-56.69,173.73-166.35,173.73-166.35-26.97-18.08-33.9-59.15-33.9-59.15,0,0-28.22,1.36-87.66-6.49-4.95,43.34-19.81,55.73-19.81,55.73.85-2.1-46.23-45.41-121.6,26.66-50.67,48.45-116.17,311.42,18.82,373.34,63.16,23.53,230.19-198.74,234.36-199.99,0,0-79.57-123.23-169.97-16.73-4.88,6.32-9.33,12.57-13.37,18.7-41.03,62.33-38.92,112.14-3.97,95.23,38.39-18.58,28.32-166.32-3.72-248.91"/>
                <path d="M241.37,518.4c12.63-15.72,26.51-30.3,40.61-44.67,42.44-42.81,87.24-83.12,132.76-122.59,0,0,.26,4.36.26,4.36-15.05-10.27-24.41-26.88-30.29-43.73-1.95-5.68-3.53-11.31-4.63-17.27,0,0,2.67,2.15,2.67,2.15-7.5.2-14.78-.06-22.22-.41-21.84-1.11-44.16-3.52-65.85-6.43,0,0,2.52-1.97,2.52-1.97-1.19,10.04-3.06,20.05-6.1,29.79-3.23,9.73-7.21,19.88-14.64,27.24,0,0-3.18-2.32-3.18-2.32-.23.72-.14.9-.04,1.27.04.09.03.06.02.05-.03-.04-.09-.13-.17-.23-3.4-3.73-8.02-6.25-12.6-8.33-15.53-6.8-33.37-5.95-49.3-.62-21.6,7.23-40.34,21.37-56.71,36.99-7.96,7.97-13.89,17.93-19.16,27.88-42.8,84.78-68.84,252.76,10.12,322.79,8.44,7.41,18.01,13.48,28.22,18.14,10.59,3.71,24.77-.81,35.33-6.27,34.62-18.42,62.91-46.83,90.48-74.51,35.89-36.28,69.17-78.66,104-116,.51-.5,1.44-1.42,2.05-1.84,0,0,.21-.13.21-.13.04-.03.32-.16.47-.2,0,0-1.03,2.79-1.03,2.79-3.46-5.17-7.44-10.19-11.56-14.97-29.27-34.1-72.44-58.46-115.99-34.85-15.28,8.08-28.3,20.22-39.49,33.36-4.8,6.24-9.51,12.79-13.79,19.39-13.5,20.45-36.14,63.22-27.68,87.41,3.84,9.81,14.22,8.09,22.03,4.12,8.24-4.25,12.5-13.12,15.62-21.64,18.9-58.49,1.89-167.65-20.33-224.89-.81-2.2,2.46-3.7,3.47-1.35,4.65,12.02,8.47,24.31,11.77,36.73,13.82,52.82,25.5,138.6,8.61,190.74-3.29,9.15-8.25,19.1-17.49,23.75-7.43,3.84-18.36,6.02-24.38-1.45-11.51-14.99-.23-46.05,6.63-61.62,8.56-19.16,19.88-36.94,32.64-53.54,15.66-18.39,35.05-35.13,58.84-41.54,46.41-12.55,89.31,22.3,114.23,58.31,0,0-1.03,2.79-1.03,2.79.11-.02.33-.13.33-.13,0,0,.08-.05.08-.05,0,0,.02,0,0,.01l-.12.14-.34.4c-3.09,3.89-8.08,10.68-11.15,14.69-28.07,36.89-58.76,71.67-91.07,104.93-28.27,28.1-57.23,56.62-93.06,75.08-12.35,5.9-27.25,11.05-40.86,5.94-10.7-4.98-20.75-11.45-29.57-19.32-60.65-55.36-57.23-156.16-42.72-230.54,8.45-39.46,20.11-79.26,41.99-113.56,9.64-14.63,23.85-25.75,38.03-35.83,23.67-16.41,55.31-27.2,83.24-15.19,3.07,1.17,16.67,8.3,14.98,12.38,0,0-3.18-2.32-3.18-2.32,12.31-13.35,16.77-36.77,18.88-54.42,0,0,.25-2.25.25-2.25l2.27.28c5.42.7,16.36,1.97,21.79,2.55,21.71,2.17,43.63,4.08,65.45,3.58,0,0,2.25-.09,2.25-.09l.42,2.24c3.45,16.48,9.96,32.94,20.64,46.07,4.25,5.26,9.55,9.59,15.19,13.26-31.13,27.06-61.86,54.67-92.1,82.73-29.1,27.4-58.56,54.78-84.67,85.05-1.55,1.8-4.37-.42-2.88-2.36h0Z"/>
              </g>
              <path class="cls-13" d="M133.18,399.49s-103,234.44,31.88,340.12c78.21,56.39,201.04-114.05,271.33-270.09h0c-82.74,117.86-190.94,256.58-254.1,218.34-63.16-38.24-69.06-187.25-49.11-288.37Z"/>
              <g>
                <circle class="cls-17" cx="330.78" cy="207.79" r="95.3"/>
                <path d="M426.32,187.57c13.99,67.33-45.85,127.92-113.28,115.44-37.87-6.55-69.81-37.38-77.63-75.04-15-68.07,44.9-129.77,113.39-116.92,38.26,6.78,70.19,38.43,77.52,76.52h0ZM421.72,188.55c-7.47-35.95-37.97-65.14-74.05-71.43-64.61-12-121.16,45.54-107.99,109.95,13.09,65.14,89.56,95.95,144.16,58.07,30.6-20.8,46.23-60.57,37.88-96.59h0Z"/>
              </g>
              <path class="cls-3" d="M421.25,180.74c.29-.61,1.18-.52,1.34.13,9.36,37.04-3.05,92.22-23.37,114.29-9.7,10.53-26.59-1.55-26.59-1.55,0,0-2.53,17.48-16.67,20.47-12.52,2.65-24.65-10.97-24.65-10.97-10.83,10.81-19.84,7.2-31.65,2.14-27.52-11.81-55.46-46.2-62.13-77.73-4.87-23.01,2.26-48.14,2.26-48.14,32.25,58.83,53.88,66.69,53.88,66.69,14.12-11.57,50.76-31.31,96.55-9.35,14.65-11.58,27.31-48.07,31.02-55.98Z"/>
              <path d="M190.83,226.92c14.23-7.97,34.62-13.12,47.93-.8,1.72,1.59-.47,4.27-2.37,2.87-5.83-4.79-13.62-5.95-20.93-4.57-7.32,1.32-14.49,4.52-20.69,8.63-4.18,2.72-8.16-3.42-3.94-6.12h0Z"/>
              <path d="M422.83,186.63c10.45-8.49,24.08-15.5,37.91-12.34,2.03.51,4,1.27,5.88,2.21,1.64.81,2.31,2.79,1.49,4.43-.85,1.74-3.05,2.36-4.69,1.35-12.37-7.12-27.58-.29-38.21,7.22-1.9,1.49-4.21-1.26-2.38-2.87h0Z"/>
              <ellipse class="cls-9" cx="345.56" cy="274.86" rx="16.51" ry="9.49" transform="translate(-49.42 77.49) rotate(-11.95)"/>
              <path class="cls-15" d="M312.9,237.91c7.92,7.34,18.37,11.9,29.16,12.59,11.24.76,22.06-2.25,32.65-6.06,2.05-.73,3.49,2.13,1.66,3.33-10.18,6.66-22.37,10.75-34.77,10.13-12.51-.61-25.24-6.87-31.76-17.85-1.05-1.96,1.56-3.77,3.04-2.15h0Z"/>
              <path d="M322.74,201.94c10.58-2.31,35.56-7.06,42.95,2.87,4.67,7.48-1.71,16.36-6.93,21.48-5.28,5.1-11.15,9.14-17.5,12.59-.9.49-2.03.16-2.52-.75-.48-.89-.16-1.99.7-2.5,7.84-5.24,21.64-14.78,22.89-24.6,1.21-9.95-22.29-7.35-28.55-6.82-3.44.34-6.92.83-10.3,1.39-2.34.34-3.03-3.06-.72-3.65h0Z"/>
              <path class="cls-8" d="M363.18,216.56s-33.49-3.71-38.17,8.08c-4.68,11.78,5.46,16.47,19.35,10.12,11.24-5.13,17.29-10.5,18.82-18.2Z"/>
              <path class="cls-14" d="M363.18,216.56s-33.49-3.71-38.17,8.08c-4.68,11.78,5.46,16.47,19.35,10.12,11.24-5.13,17.29-10.5,18.82-18.2Z"/>
              <path d="M289.53,203.09s-.02.06-.02,0l-.02-.17c-.1-.74-.26-2.21-.33-2.97-.4-6.17-.43-12.45,2.98-18.05,5.31-8.22,16.86-5.17,21.5,2.03,2.87,4.13,4.46,8.65,5.19,13.57.14,1.02-.58,1.96-1.6,2.1-.95.13-1.81-.48-2.05-1.37-1.99-5.63-4.65-11.9-9.94-14.76-11.61-5.26-11.73,11.92-11.97,19.34,0,.22-.02.44-.05.69,0,.03-.03.06-.07.05l-3.63-.47h0Z"/>
              <path d="M348.6,190.59c-.13-.75-.19-2.21-.25-3.02-.21-5.87.1-11.9,3.73-16.98,3.22-4.59,9.91-5.48,14.84-3.2,6.88,3.19,10.07,10.6,11,17.67.22,2.23-2.96,2.87-3.63.75-1.94-5.98-5.16-13.12-11.88-14.09-8.84-1.29-9.49,11.14-9.98,17.44-.03.54-.08,1.3-.13,1.84-.07,1.09-1.49,1.63-2.27.88,0,0-1.43-1.3-1.43-1.3h0Z"/>
              <path class="cls-7" d="M276.55,165.09s21.19-23.47,37.09-6.16"/>
              <path class="cls-7" d="M340.12,156.46s11.7-22.49,37.09-6.16"/>
              <path class="cls-13" d="M287.96,297.91s18.48,49.13,54.85,47.48c36.38-1.65,39.82-51.31,39.82-51.31l-94.68,3.83Z"/>
              <path class="cls-13" d="M234.95,215.25s-53.63-15.66-69.59,25.54c-9.81-28.45,27.53-55.63,70.67-37.08l-1.08,11.54Z"/>
              <path class="cls-13" d="M420.62,175.96s29.67-33.29,60.96-2.08c-3.47-18.01-34.48-45.21-66.4-10.77,5.66,10.11,5.45,12.85,5.45,12.85Z"/>
              <path class="cls-10" d="M277.16,343.32s-52.35-48.03-132.68,40.27c-9.31,15.9-16.21,30.37-16.21,30.37,0,0-42.65-3.15-11.28,28.22.83-.03,1.65-.04,2.47-.05,50.46-.66,97.06,26.98,121.72,71l186.74-18.96,56.93-120.49-80.18-33.51s-73.04,49.6-127.52,3.15Z"/>
              <path class="cls-7" d="M126.28,413.96s75.28,10.09,111.26,62.09"/>
            </g>
          </g>
          <path class="cls-5" d="M688.75,469.52H115.65c-31.66,0-57.32-25.66-57.32-57.32V60.15h687.73v352.05c0,31.66-25.66,57.32-57.32,57.32Z"/>
          <circle class="cls-1" cx="112.64" cy="32.5" r="8.29"/>
          <circle class="cls-2" cx="145.75" cy="32.5" r="8.29"/>
          <circle class="cls-4" cx="181.28" cy="32.5" r="8.29"/>
        </g>
      </g>
    </g>
  </g>
</svg>